Coordinates
version=1
nRows=5
nColumns=40
inDegrees=yes

Units are S.I. units (second, meters, Newtons, ...)
Angles are in degrees.

endheader
time	pelvis_tilt	pelvis_list	pelvis_rotation	pelvis_tx	pelvis_ty	pelvis_tz	hip_flexion_r	hip_adduction_r	hip_rotation_r	knee_angle_r	knee_angle_r_beta	ankle_angle_r	subtalar_angle_r	mtp_angle_r	hip_flexion_l	hip_adduction_l	hip_rotation_l	knee_angle_l	knee_angle_l_beta	ankle_angle_l	subtalar_angle_l	mtp_angle_l	lumbar_extension	lumbar_bending	lumbar_rotation	arm_flex_r	arm_add_r	arm_rot_r	elbow_flex_r	pro_sup_r	wrist_flex_r	wrist_dev_r	arm_flex_l	arm_add_l	arm_rot_l	elbow_flex_l	pro_sup_l	wrist_flex_l	wrist_dev_l
     11.20228571	     -1.51861805	     -5.54296051	      4.01916284	      0.87048551	      0.92440841	      0.47956876	     -3.05629647	      5.04823701	    -17.35037863	      9.83162124	      9.83162124	     17.33363337	      8.98460666	     -4.84824725	     29.19985797	     -7.77538867	     -5.38955765	     19.48149960	     19.48149960	      4.17841970	     -8.62624275	      9.25540572	     -8.01004668	      8.95067188	      4.80575961	     35.45822947	    -15.18166103	     -7.86390539	     91.17637672	     44.49099525	      0.00000000	      0.00000000	    -14.27126175	     -8.40829664	      5.79627556	     26.72726914	     45.29277047	      0.00000000	      0.00000000
     11.21457143	     -1.66582088	     -5.55301361	      3.80991439	      0.87055682	      0.92263400	      0.47787723	     -3.06789130	      4.90321831	    -16.62257018	     10.55377835	     10.55377835	     18.16693491	      7.89777203	     -4.31785205	     29.07789526	     -7.48633417	     -4.24769772	     20.43406960	     20.43406960	      3.30242829	    -11.08502799	      9.14116254	     -7.82689112	      8.86786462	      4.73914212	     35.17285202	    -15.34662288	     -7.24566385	     93.42535149	     44.41900076	      0.00000000	      0.00000000	    -14.42619659	     -8.40255228	      5.65443230	     27.18904359	     45.32123702	      0.00000000	      0.00000000
     11.22685714	     -1.69608366	     -5.47824936	      3.54780906	      0.87088119	      0.92108241	      0.47622134	     -3.29156205	      4.66708834	    -16.00717839	     11.14701902	     11.14701902	     18.89467178	      7.20544434	     -3.90973208	     28.85817918	     -7.30799340	     -3.84934450	     21.48024773	     21.48024773	      2.85540456	    -12.41836195	      8.80348136	     -7.69476370	      8.63817998	      4.75909299	     34.94875400	    -15.47615546	     -6.94187033	     94.57503987	     44.38877653	      0.00000000	      0.00000000	    -14.37199213	     -8.41152708	      5.58028531	     27.37248563	     45.34129706	      0.00000000	      0.00000000
     11.23914286	     -1.72308718	     -5.33042999	      3.30901971	      0.87120010	      0.91966419	      0.47446953	     -3.42582178	      4.34705887	    -15.24044788	     11.91229396	     11.91229396	     19.64845934	      6.21139261	     -3.28435084	     28.63053575	     -7.04977669	     -3.49165431	     22.41881814	     22.41881814	      2.50481393	    -13.65129021	      8.34590337	     -7.57605476	      8.31740201	      4.70802527	     34.47948397	    -15.63698738	     -6.55488996	     95.71385543	     44.36001519	      0.00000000	      0.00000000	    -14.16694480	     -8.45404660	      5.51249932	     27.46195337	     45.36486454	      0.00000000	      0.00000000
     11.25142857	     -1.69371950	     -5.18177220	      3.13215693	      0.87149878	      0.91840550	      0.47256825	     -3.55530275	      4.00447012	    -14.62246885	     12.78607248	     12.78607248	     20.27776122	      5.28727613	     -2.92359200	     28.47145035	     -6.81718134	     -3.24953923	     23.47476939	     23.47476939	      2.48865069	    -14.55610372	      7.90250994	     -7.51690456	      8.00844085	      4.53836699	     34.10728468	    -15.67758617	     -6.25645583	     96.43780660	     44.34032088	      0.00000000	      0.00000000	    -13.80721404	     -8.43895595	      5.50014879	     27.46644394	     45.37917365	      0.00000000	      0.00000000
